<svg xmlns="http://www.w3.org/2000/svg" version="1.1" xmlns:xlink="http://www.w3.org/1999/xlink" xmlns:svgjs="http://svgjs.dev/svgjs" width="128" height="128" viewBox="0 0 128 128"><g transform="matrix(0.3946360153256705,0,0,0.3946360153256705,38.590866525767396,12.33387096774193)"><svg viewBox="0 0 76 155" data-background-color="#fafafa" preserveAspectRatio="xMidYMid meet" height="261" width="128" xmlns="http://www.w3.org/2000/svg" xmlns:xlink="http://www.w3.org/1999/xlink"><g id="tight-bounds" transform="matrix(1,0,0,1,0.22933643771828827,0.25)"><svg viewBox="0 0 75.54132712456344 154.5" height="154.5" width="75.54132712456344"><g><svg viewBox="0 0 75.54132712456344 154.5" height="154.5" width="75.54132712456344"><g><svg viewBox="0 0 75.54132712456344 154.5" height="154.5" width="75.54132712456344"><g id="textblocktransform"><svg viewBox="0 0 75.54132712456344 154.5" height="154.5" width="75.54132712456344" id="textblock"><g><svg viewBox="0 0 75.54132712456344 154.5" height="154.5" width="75.54132712456344"><g transform="matrix(1,0,0,1,0,0)"><svg width="75.54132712456344" viewBox="1.9 -42.95 21 42.95" height="154.5" data-palette-color="#130912"><path d="M1.9 0L1.9-42.95 15.1-42.95Q18.25-42.95 19.98-41.53 21.7-40.1 22.3-37.52 22.9-34.95 22.9-30.95L22.9-30.95Q22.9-27.3 21.95-25.25 21-23.2 18.65-22.4L18.65-22.4Q20.6-22 21.48-20.45 22.35-18.9 22.35-16.25L22.35-16.25 22.25 0 13.85 0 13.85-16.8Q13.85-18.6 13.15-19.1 12.45-19.6 10.6-19.6L10.6-19.6 10.6 0 1.9 0ZM10.65-27.05L12.7-27.05Q14.5-27.05 14.5-30.95L14.5-30.95Q14.5-32.65 14.35-33.5 14.2-34.35 13.8-34.68 13.4-35 12.65-35L12.65-35 10.65-35 10.65-27.05Z" opacity="1" transform="matrix(1,0,0,1,0,0)" fill="#ffffff" class="wordmark-text-0" data-fill-palette-color="primary" id="text-0"></path></svg></g></svg></g></svg></g></svg></g><g></g></svg></g><defs></defs></svg><rect width="75.54132712456344" height="154.5" fill="none" stroke="none" visibility="hidden"></rect></g></svg></g></svg>